<svg width="69" height="60" viewBox="0 0 69 60" fill="none" xmlns="http://www.w3.org/2000/svg">
<path d="M2.112 29.472C2.112 25.0347 3.072 21.088 4.992 17.632C6.912 14.1333 9.57867 11.424 12.992 9.504C16.448 7.54133 20.352 6.56 24.704 6.56C30.0373 6.56 34.6027 7.968 38.4 10.784C42.1973 13.6 44.736 17.44 46.016 22.304H33.984C33.088 20.4267 31.808 18.9973 30.144 18.016C28.5227 17.0347 26.6667 16.544 24.576 16.544C21.2053 16.544 18.4747 17.7173 16.384 20.064C14.2933 22.4107 13.248 25.5467 13.248 29.472C13.248 33.3973 14.2933 36.5333 16.384 38.88C18.4747 41.2267 21.2053 42.4 24.576 42.4C26.6667 42.4 28.5227 41.9093 30.144 40.928C31.808 39.9467 33.088 38.5173 33.984 36.64H46.016C44.736 41.504 42.1973 45.344 38.4 48.16C34.6027 50.9333 30.0373 52.32 24.704 52.32C20.352 52.32 16.448 51.36 12.992 49.44C9.57867 47.4773 6.912 44.768 4.992 41.312C3.072 37.856 2.112 33.9093 2.112 29.472Z" fill="white"/>
<path d="M68.4051 25.1805C68.7521 25.1047 68.9999 24.7939 68.9999 24.4332V21.0998C68.9999 20.8692 68.8972 20.6506 68.7202 20.5052C68.5433 20.3604 68.3112 20.3041 68.0889 20.3525L65.1023 21.004V16.8138C65.1023 16.5874 65.0032 16.3725 64.832 16.2271C64.6605 16.0817 64.4346 16.0211 64.2152 16.0617L61.9769 16.4736C61.6187 16.5394 61.3582 16.8559 61.3582 17.2257V21.8209L56.6917 22.8389V18.7657C56.6917 18.5392 56.5926 18.3244 56.4214 18.1789C56.2503 18.0336 56.0243 17.973 55.8045 18.0135L53.5661 18.4249C53.2079 18.4907 52.9474 18.8073 52.9474 19.177V23.6553L49.5948 24.3869C49.2477 24.4622 49 24.7739 49 25.1342V28.4675C49 28.6982 49.1028 28.9168 49.2797 29.0621C49.4568 29.207 49.6887 29.2634 49.9113 29.2149L52.9474 28.5523V34.9183L49.5948 35.6498C49.2477 35.7251 49 36.0364 49 36.3966V39.7289C49 39.9596 49.1028 40.1781 49.2797 40.3235C49.4568 40.4683 49.6887 40.5247 49.9113 40.4762L52.9474 39.8137V44.3062C52.9474 44.5326 53.0465 44.7475 53.2177 44.8929C53.3889 45.0383 53.6149 45.0989 53.8346 45.0583L56.0728 44.6474C56.4311 44.5817 56.6918 44.2651 56.6918 43.8954V38.9974L61.3583 37.9793V42.3549C61.3583 42.5819 61.4573 42.7968 61.6286 42.9416C61.7998 43.087 62.0258 43.1476 62.2454 43.107L64.4837 42.6956C64.8419 42.6298 65.1024 42.3133 65.1024 41.9436V37.1623L68.4052 36.4419C68.7523 36.3661 69 36.0553 69 35.6946V32.3628C69 32.1322 68.8973 31.9136 68.7203 31.7682C68.5434 31.6234 68.3113 31.567 68.089 31.6155L65.1024 32.267V25.9011L68.4051 25.1805ZM61.3582 33.0838L56.6916 34.1014V27.7359L61.3582 26.7179V33.0838Z" fill="#F5F5F5"/>
<path d="M65.2727 15.0021C65.274 15.0021 65.275 15.0021 65.2763 15.0016L65.286 15L65.2727 15.0021Z" fill="#F5F5F5"/>
</svg>
