<svg width="57" height="58" viewBox="0 0 57 58" fill="none" xmlns="http://www.w3.org/2000/svg">
<path d="M39.3975 9.75674C37.2937 7.62876 35.1638 5.52933 32.9869 3.47938C32.3738 2.80368 31.4981 2.38113 30.525 2.38113C30.51 2.38113 30.4969 2.38113 30.4819 2.38113C29.73 2.45536 29.0419 2.61906 28.3894 2.86269L28.4475 2.84365L14.835 9.75294L39.3975 9.75674ZM11.19 11.367V39.3639C11.1712 39.5218 11.16 39.7046 11.16 39.8892C11.16 41.0731 11.6156 42.1504 12.3581 42.9479L12.3563 42.946L23.8725 54.6347H43.8394V44.5087L11.19 11.367ZM9.60187 9.75294C9.60187 9.75294 21.4256 3.75538 27.3356 0.75374C28.2656 0.277894 29.3606 0 30.5212 0C30.6187 0 30.7181 0.00190342 30.8156 0.00571019H30.8025C32.3137 0.308348 33.6394 0.965015 34.7419 1.89006L34.7269 1.87864L56.1562 23.6343V46.886H46.1812V57.012H22.905L1.84688 35.6351C0.73125 34.4703 0.031875 32.8886 0 31.1393V31.1336C0.095625 30.161 0.358125 29.2721 0.759375 28.4651L0.740625 28.5089L9.60187 9.75294Z" fill="white"/>
</svg>
