<svg width="40" height="40" viewBox="0 0 40 40" fill="none" xmlns="http://www.w3.org/2000/svg">
<g clip-path="url(#clip0_20_470)">
<path d="M19.5234 17.1953C18.0469 14.5703 16.4688 12.4297 16.3516 12.2734C13.9688 13.3984 12.1953 15.5937 11.6406 18.2344C11.8672 18.2422 15.4297 18.2891 19.5234 17.1953Z" fill="#A4C0F6"/>
<path d="M20.5938 20.0625C20.7031 20.0234 20.8203 19.9922 20.9297 19.9609C20.7188 19.4766 20.4844 18.9844 20.2344 18.5078C15.8359 19.8203 11.6172 19.7266 11.4687 19.7266C11.4687 19.8125 11.4609 19.9062 11.4609 19.9922C11.4609 22.1875 12.2891 24.1875 13.6484 25.7031V25.6953C13.6484 25.6953 15.9844 21.5547 20.5938 20.0625Z" fill="#A4C0F6"/>
<path d="M14.6797 26.6797C14.6406 26.6484 14.6016 26.6172 14.5625 26.5859C14.6094 26.6172 14.6484 26.6563 14.6797 26.6797Z" fill="#A4C0F6"/>
<path d="M17.9531 11.7031C17.9453 11.7031 17.9375 11.7109 17.9219 11.7109C17.9453 11.7109 17.9531 11.7109 17.9531 11.7031C17.9531 11.7109 17.9531 11.7109 17.9531 11.7031Z" fill="#A4C0F6"/>
<path d="M25.6406 13.5937C24.1328 12.2656 22.1641 11.4609 20 11.4609C19.3047 11.4609 18.6328 11.5469 17.9844 11.7031C18.1094 11.875 19.7188 14 21.1797 16.6875C24.3984 15.4766 25.6172 13.625 25.6406 13.5937Z" fill="#A4C0F6"/>
<path d="M21.4531 21.3984C16.3906 23.1641 14.75 26.7344 14.75 26.7344C14.75 26.7344 14.7422 26.7266 14.7344 26.7187C16.1875 27.8594 18.0156 28.5391 20 28.5391C21.1797 28.5391 22.3125 28.2969 23.3359 27.8594C23.2109 27.1094 22.7109 24.5 21.5156 21.375C21.4922 21.3828 21.4688 21.3906 21.4531 21.3984Z" fill="#A4C0F6"/>
<path d="M20 0C8.95312 0 0 8.95312 0 20C0 31.0469 8.95312 40 20 40C31.0469 40 40 31.0469 40 20C40 8.95312 31.0469 0 20 0ZM29.7969 22.0156C29.6641 22.6562 29.4688 23.2891 29.2109 23.8906C28.9609 24.4844 28.6484 25.0547 28.2891 25.5938C27.9297 26.125 27.5234 26.6172 27.0703 27.0703C26.6172 27.5234 26.1172 27.9297 25.5938 28.2891C25.0625 28.6484 24.4844 28.9609 23.8984 29.2109C23.2969 29.4688 22.6641 29.6641 22.0156 29.7969C21.3594 29.9297 20.6797 30 20 30C19.3203 30 18.6406 29.9297 17.9844 29.7969C17.3438 29.6641 16.7109 29.4688 16.1094 29.2109C15.5156 28.9609 14.9453 28.6484 14.4141 28.2891C13.8828 27.9297 13.3906 27.5234 12.9375 27.0703C12.4844 26.6172 12.0781 26.1172 11.7188 25.5938C11.3594 25.0625 11.0469 24.4844 10.7969 23.8906C10.5391 23.2891 10.3438 22.6562 10.2109 22.0156C10.0781 21.3594 10.0078 20.6797 10.0078 20C10.0078 19.3203 10.0781 18.6406 10.2109 17.9844C10.3438 17.3438 10.5391 16.7109 10.7969 16.1016C11.0469 15.5078 11.3594 14.9375 11.7188 14.4062C12.0781 13.875 12.4844 13.3828 12.9375 12.9297C13.3906 12.4766 13.8906 12.0625 14.4141 11.7109C14.9453 11.3516 15.5234 11.0391 16.1094 10.7891C16.7109 10.5313 17.3438 10.3359 17.9844 10.2031C18.6406 10.0703 19.3203 10 20 10C20.6797 10 21.3516 10.0703 22.0156 10.2031C22.6562 10.3359 23.2891 10.5313 23.8984 10.7891C24.4922 11.0391 25.0625 11.3516 25.5938 11.7109C26.125 12.0703 26.6172 12.4766 27.0703 12.9297C27.5234 13.3828 27.9297 13.8828 28.2891 14.4062C28.6484 14.9375 28.9609 15.5078 29.2109 16.1016C29.4688 16.7031 29.6641 17.3359 29.7969 17.9844C29.9297 18.6406 30 19.3203 30 20C30 20.6797 29.9297 21.3594 29.7969 22.0156Z" fill="#A4C0F6"/>
<path d="M21.8359 17.9531C22.0312 18.3594 22.2266 18.7734 22.4063 19.1953C22.4688 19.3438 22.5312 19.4922 22.5937 19.6328C25.5312 19.2656 28.4219 19.8828 28.5391 19.9141C28.5156 17.8906 27.7969 16.0312 26.5937 14.5781C26.5781 14.6016 25.2109 16.5781 21.8359 17.9531Z" fill="#A4C0F6"/>
<path d="M23.1094 20.9844C24.2266 24.0625 24.6875 26.5703 24.7734 27.0859C26.6875 25.7891 28.0547 23.7422 28.4375 21.3594C28.2578 21.2969 25.8672 20.5391 23.1094 20.9844Z" fill="#A4C0F6"/>
</g>
<defs>
<clipPath id="clip0_20_470">
<rect width="40" height="40" fill="white"/>
</clipPath>
</defs>
</svg>
