<svg width="40" height="40" viewBox="0 0 40 40" fill="none" xmlns="http://www.w3.org/2000/svg">
<path d="M20 40C31.0457 40 40 31.0457 40 20C40 8.9543 31.0457 0 20 0C8.9543 0 0 8.9543 0 20C0 31.0457 8.9543 40 20 40Z" fill="#1C1C1C"/>
<path d="M30 20.0625C30 14.5391 25.5234 10.0625 20 10.0625C14.4766 10.0625 10 14.5391 10 20.0625C10 25.0547 13.6562 29.1914 18.4375 29.9414V22.9531H15.8984V20.0625H18.4375V17.8594C18.4375 15.3516 19.9297 13.9688 22.2148 13.9688C23.3086 13.9688 24.4531 14.1641 24.4531 14.1641V16.625H23.1914C21.9492 16.625 21.5625 17.3945 21.5625 18.1875V20.0625H24.3359L23.8906 22.9531H21.5625V29.9414C26.3438 29.1875 30 25.0508 30 20.0625Z" fill="white"/>
</svg>
