<svg width="60" height="60" viewBox="0 0 60 60" fill="none" xmlns="http://www.w3.org/2000/svg">
<path d="M38.7975 22.9256C34.89 22.9256 31.7232 26.0925 31.7232 30C31.7232 33.9075 34.89 37.0744 38.7975 37.0744H39.0263C42.9338 37.0744 46.1007 33.9075 46.1007 30C46.1007 26.0925 42.9338 22.9256 39.0263 22.9256H38.7975ZM39.0263 40.5206H38.7975C32.9869 40.5206 28.2769 35.8106 28.2769 30C28.2769 24.1894 32.9869 19.4794 38.7975 19.4794H39.0263C44.8369 19.4794 49.5469 24.1894 49.5469 30C49.5469 35.8106 44.8369 40.5206 39.0263 40.5206ZM20.9738 40.5206C17.0663 40.5206 13.8975 43.6875 13.8975 47.595C13.8975 51.5025 17.0644 54.6694 20.9719 54.6694C20.9925 54.6694 21.015 54.6694 21.0357 54.6694H21.0319C21.0375 54.6694 21.045 54.6694 21.0525 54.6694C25.0294 54.6694 28.2582 51.4556 28.2788 47.4825V40.5206H20.9738ZM21.03 58.1175C21.0057 58.1175 20.9757 58.1175 20.9457 58.1175C15.135 58.1175 10.425 53.4075 10.425 47.5969C10.425 41.7862 15.135 37.0762 20.9457 37.0762C20.955 37.0762 20.9644 37.0762 20.9738 37.0762H31.7232V47.4825C31.7007 53.3606 26.9288 58.1175 21.0488 58.1175C21.0432 58.1175 21.0375 58.1175 21.0319 58.1175H21.03ZM20.9738 22.9256C17.0663 22.9256 13.8994 26.0925 13.8994 30C13.8994 33.9075 17.0663 37.0762 20.9738 37.0762L28.2769 37.0744V22.9275L20.9738 22.9256ZM31.7213 40.5206H20.9738C15.1632 40.5206 10.4532 35.8106 10.4532 30C10.4532 24.1894 15.1632 19.4794 20.9738 19.4794H31.7232V40.5206H31.7213ZM20.9738 5.33062C17.0663 5.33062 13.8994 8.49749 13.8994 12.405C13.8994 16.3125 17.0663 19.4794 20.9738 19.4794H28.2769V5.32874L20.9738 5.33062ZM31.7213 22.9256H20.9738C15.1632 22.9256 10.4513 18.2156 10.4513 12.4031C10.4513 6.59061 15.1613 1.88062 20.9738 1.88062H31.7232V22.9237L31.7213 22.9256ZM31.7213 19.4794H39.0263C42.9263 19.47 46.0819 16.3069 46.0819 12.405C46.0819 8.50311 42.9244 5.33999 39.0244 5.33062H31.7213V19.4794ZM39.0263 22.9256L28.2769 22.9275V1.88249H39.0263C44.8369 1.88249 49.5488 6.59249 49.5488 12.405C49.5488 18.2175 44.8388 22.9256 39.0263 22.9256Z" fill="white"/>
</svg>
