<svg width="41" height="58" viewBox="0 0 41 58" fill="none" xmlns="http://www.w3.org/2000/svg">
<path d="M25.7381 16.9991L21.4744 8.71749C21.2569 8.30446 20.835 8.02657 20.3494 8.02657C19.8638 8.02657 19.4419 8.30256 19.2281 8.70988L19.2244 8.71749L0.5025 42.7766L25.7381 16.9991ZM40.6969 46.0581L35.4244 12.7584C35.3269 12.1398 34.8038 11.6715 34.1738 11.6715C33.8194 11.6715 33.5006 11.8181 33.27 12.056L0 46.06L18.4069 56.5895C18.9431 56.8997 19.5844 57.0844 20.2669 57.0844C20.9494 57.0844 21.5925 56.9016 22.1456 56.58L22.1269 56.5895L40.6969 46.0581ZM1.34625 37.2778L6.88688 1.09825C6.9825 0.473942 7.5075 0 8.14313 0C8.62688 0 9.04875 0.274087 9.2625 0.679508L9.26625 0.687121L15.225 12.0351L1.34625 37.2778Z" fill="white"/>
</svg>
