<svg width="54" height="55" viewBox="0 0 54 55" fill="none" xmlns="http://www.w3.org/2000/svg">
<path fill-rule="evenodd" clip-rule="evenodd" d="M30.4289 6.56233C28.4764 4.58014 25.3104 4.58014 23.3579 6.56233L21.6789 8.26667L25.5984 12.2453C26.0114 12.1332 26.4454 12.0734 26.8934 12.0734C29.6549 12.0734 31.8934 14.3459 31.8934 17.1491C31.8934 17.6038 31.8344 18.0445 31.7241 18.4638L36.8484 23.6655C37.2614 23.5536 37.6954 23.4937 38.1434 23.4937C40.9049 23.4937 43.1434 25.7661 43.1434 28.5694C43.1434 31.3727 40.9049 33.6451 38.1434 33.6451C35.3819 33.6451 33.1434 31.3727 33.1434 28.5694C33.1434 28.1146 33.2024 27.6741 33.3126 27.2548L29.3934 23.276V35.5932C30.8879 36.4707 31.8934 38.111 31.8934 39.9897C31.8934 42.793 29.6549 45.0654 26.8934 45.0654C24.1319 45.0654 21.8934 42.793 21.8934 39.9897C21.8934 38.111 22.8989 36.4707 24.3934 35.5932V21.5458C22.8989 20.6682 21.8934 19.0278 21.8934 17.1491C21.8934 16.6944 21.9524 16.2537 22.0626 15.8344L18.1434 11.8557L6.46447 23.7115C4.51185 25.6935 4.51185 28.9075 6.46447 30.8895L23.3579 48.0387C25.3104 50.0208 28.4764 50.0208 30.4289 48.0387L47.3224 30.8895C49.2749 28.9075 49.2749 25.6935 47.3224 23.7115L30.4289 6.56233ZM19.8223 2.97326C23.7276 -0.991095 30.0591 -0.991085 33.9644 2.97328L50.8579 20.1224C54.7631 24.0868 54.7631 30.5142 50.8579 34.4785L33.9644 51.6278C30.0591 55.5921 23.7276 55.5921 19.8223 51.6278L2.92892 34.4785C-0.976316 30.5142 -0.976306 24.0868 2.92895 20.1224L19.8223 2.97326Z" fill="#F5F5F5"/>
</svg>
