<svg width="40" height="40" viewBox="0 0 40 40" fill="none" xmlns="http://www.w3.org/2000/svg">
<path d="M20 40C31.0457 40 40 31.0457 40 20C40 8.95434 31.0457 3.05176e-05 20 3.05176e-05C8.9543 3.05176e-05 0 8.95434 0 20C0 31.0457 8.9543 40 20 40Z" fill="#A4C0F6"/>
<path d="M20 10C17.2852 10 16.9453 10.0117 15.8789 10.0586C14.8125 10.1094 14.0898 10.2773 13.4531 10.5234C12.7969 10.7773 12.2383 11.1211 11.6797 11.6758C11.1211 12.2305 10.7812 12.7891 10.5273 13.4492C10.2812 14.0859 10.1133 14.8125 10.0625 15.875C10.0117 16.9414 10.0039 17.2812 10.0039 19.9961C10.0039 22.7109 10.0156 23.0508 10.0625 24.1172C10.1133 25.1797 10.2812 25.9062 10.5273 26.543C10.7812 27.1992 11.125 27.7578 11.6797 28.3164C12.2344 28.8711 12.793 29.2148 13.4531 29.4688C14.0898 29.7148 14.8164 29.8828 15.8789 29.9336C16.9453 29.9844 17.2852 29.9922 20 29.9922C22.7148 29.9922 23.0547 29.9805 24.1211 29.9336C25.1836 29.8828 25.9102 29.7148 26.5469 29.4688C27.2031 29.2148 27.7617 28.8711 28.3203 28.3164C28.875 27.7617 29.2188 27.2031 29.4727 26.543C29.7188 25.9062 29.8867 25.1797 29.9375 24.1172C29.9883 23.0508 29.9961 22.7109 29.9961 19.9961C29.9961 17.2812 29.9844 16.9414 29.9375 15.875C29.8867 14.8125 29.7188 14.0859 29.4727 13.4492C29.2188 12.793 28.875 12.2344 28.3203 11.6758C27.7656 11.1211 27.207 10.7773 26.5469 10.5234C25.9102 10.2773 25.1836 10.1094 24.1211 10.0586C23.0547 10.0117 22.7148 10 20 10ZM20 11.8008C22.668 11.8008 22.9883 11.8125 24.043 11.8594C25.0195 11.9063 25.5469 12.0664 25.8984 12.207C26.3672 12.3867 26.6992 12.6055 27.0508 12.9531C27.3984 13.3047 27.6172 13.6367 27.7969 14.1055C27.9336 14.457 28.0977 14.9844 28.1406 15.9609C28.1875 17.0156 28.1992 17.332 28.1992 20.0039C28.1992 22.6758 28.1875 22.9922 28.1367 24.0469C28.0859 25.0234 27.9219 25.5508 27.7852 25.9023C27.5977 26.3711 27.3867 26.7031 27.0352 27.0547C26.6875 27.4023 26.3477 27.6211 25.8867 27.8008C25.5352 27.9375 25 28.1016 24.0234 28.1445C22.9609 28.1914 22.6484 28.2031 19.9727 28.2031C17.2969 28.2031 16.9844 28.1914 15.9219 28.1406C14.9453 28.0898 14.4102 27.9258 14.0586 27.7891C13.5859 27.6016 13.2578 27.3906 12.9102 27.0391C12.5586 26.6914 12.3359 26.3516 12.1602 25.8906C12.0234 25.5391 11.8594 25.0039 11.8086 24.0273C11.7695 22.9766 11.7578 22.6523 11.7578 19.9922C11.7578 17.3281 11.7695 17.0039 11.8086 15.9414C11.8594 14.9648 12.0195 14.4297 12.1602 14.0781C12.3359 13.6016 12.5586 13.2773 12.9102 12.9258C13.2578 12.5781 13.5859 12.3516 14.0586 12.1758C14.4102 12.0391 14.9336 11.875 15.9102 11.8242C16.9727 11.7852 17.2852 11.7734 19.9609 11.7734L20 11.8008ZM20 14.8633C17.1641 14.8633 14.8633 17.1641 14.8633 20C14.8633 22.8359 17.1641 25.1367 20 25.1367C22.8359 25.1367 25.1367 22.8359 25.1367 20C25.1367 17.1641 22.8359 14.8633 20 14.8633ZM20 23.332C18.1602 23.332 16.668 21.8398 16.668 20C16.668 18.1602 18.1602 16.668 20 16.668C21.8398 16.668 23.332 18.1602 23.332 20C23.332 21.8398 21.8398 23.332 20 23.332ZM26.5391 14.6641C26.5391 15.3281 26 15.8633 25.3398 15.8633C24.6758 15.8633 24.1406 15.3242 24.1406 14.6641C24.1406 14.0039 24.6797 13.4648 25.3398 13.4648C26 13.4609 26.5391 14 26.5391 14.6641Z" fill="#E0F1FF"/>
</svg>
