<svg width="90" height="36" viewBox="0 0 90 36" fill="none" xmlns="http://www.w3.org/2000/svg">
<path d="M6.048 22.4H11.304V26H1.344V9.08H6.048V22.4ZM17.8371 22.4H23.0931V26H13.1331V9.08H17.8371V22.4ZM33.0341 26.168C31.4501 26.168 29.9941 25.8 28.6661 25.064C27.3381 24.312 26.2821 23.28 25.4981 21.968C24.7301 20.64 24.3461 19.144 24.3461 17.48C24.3461 15.816 24.7301 14.328 25.4981 13.016C26.2821 11.688 27.3381 10.656 28.6661 9.92C29.9941 9.184 31.4501 8.816 33.0341 8.816C34.6341 8.816 36.0901 9.184 37.4021 9.92C38.7301 10.656 39.7781 11.688 40.5461 13.016C41.3141 14.328 41.6981 15.816 41.6981 17.48C41.6981 19.144 41.3141 20.64 40.5461 21.968C39.7781 23.28 38.7301 24.312 37.4021 25.064C36.0741 25.8 34.6181 26.168 33.0341 26.168ZM33.0341 21.8C34.2341 21.8 35.1781 21.408 35.8661 20.624C36.5701 19.84 36.9221 18.792 36.9221 17.48C36.9221 16.136 36.5701 15.08 35.8661 14.312C35.1781 13.528 34.2341 13.136 33.0341 13.136C31.8181 13.136 30.8661 13.528 30.1781 14.312C29.4901 15.08 29.1461 16.136 29.1461 17.48C29.1461 18.808 29.4901 19.864 30.1781 20.648C30.8661 21.416 31.8181 21.8 33.0341 21.8ZM59.1968 9.08L53.2448 20.624V26H48.5168V20.624L42.5648 9.08H47.9408L50.9168 15.608L53.8928 9.08H59.1968ZM67.3369 9.08C69.1129 9.08 70.6649 9.44 71.9929 10.16C73.3369 10.864 74.3689 11.856 75.0889 13.136C75.8089 14.416 76.1689 15.88 76.1689 17.528C76.1689 19.16 75.8009 20.616 75.0649 21.896C74.3449 23.176 73.3129 24.184 71.9689 24.92C70.6409 25.64 69.0969 26 67.3369 26H60.6409V9.08H67.3369ZM66.9769 21.848C68.3529 21.848 69.4329 21.472 70.2169 20.72C71.0009 19.968 71.3929 18.904 71.3929 17.528C71.3929 16.136 71.0009 15.064 70.2169 14.312C69.4329 13.544 68.3529 13.16 66.9769 13.16H65.3449V21.848H66.9769Z" fill="#A4C0F6"/>
<circle cx="85" cy="23" r="5" fill="#118DF0"/>
</svg>
